<?xml version="1.0" encoding="UTF-8" standalone="no"?>
<!-- Generator: Adobe Illustrator 25.2.1, SVG Export Plug-In . SVG Version: 6.00 Build 0)  -->

<svg
   version="1.1"
   id="Layer_1"
   x="0px"
   y="0px"
   viewBox="0 0 64 64"
   style="enable-background:new 0 0 64 64;"
   xml:space="preserve"
   sodipodi:docname="folder-science.svg"
   inkscape:version="1.4.2 (ebf0e940d0, 2025-05-08)"
   xmlns:inkscape="http://www.inkscape.org/namespaces/inkscape"
   xmlns:sodipodi="http://sodipodi.sourceforge.net/DTD/sodipodi-0.dtd"
   xmlns:xlink="http://www.w3.org/1999/xlink"
   xmlns="http://www.w3.org/2000/svg"
   xmlns:svg="http://www.w3.org/2000/svg"><defs
   id="defs12"><radialGradient
     id="SVGID_2_-3"
     cx="28.128099"
     cy="25.073299"
     r="40.0504"
     fx="5.4853001"
     fy="7.4745002"
     gradientUnits="userSpaceOnUse"
     gradientTransform="translate(0.0498045,0.00418596)">
	<stop
   offset="0"
   style="stop-color:#15C7FF"
   id="stop3-6" />
	<stop
   offset="1"
   style="stop-color:#005A9E"
   id="stop4-7" />
</radialGradient><radialGradient
     id="SVGID_4_-5"
     cx="25.213699"
     cy="25.563499"
     r="32.348301"
     fx="16.568701"
     fy="17.644699"
     gradientUnits="userSpaceOnUse"
     gradientTransform="translate(0,0.00418596)">
	<stop
   offset="0"
   style="stop-color:#FFFFFF"
   id="stop7-3" />
	<stop
   offset="1"
   style="stop-color:#B7B7B7"
   id="stop8-5" />
</radialGradient><radialGradient
     id="SVGID_6_-6"
     cx="32"
     cy="39"
     r="40.048599"
     fx="14.0678"
     fy="24.8514"
     gradientUnits="userSpaceOnUse"
     gradientTransform="translate(0,0.00418596)">
	<stop
   offset="0"
   style="stop-color:#00F0F4"
   id="stop11-2" />
	<stop
   offset="1"
   style="stop-color:#1598FF"
   id="stop12-9" />
</radialGradient><inkscape:path-effect
     effect="fillet_chamfer"
     id="path-effect21-7"
     is_visible="true"
     lpeversion="1"
     nodesatellites_param="F,0,0,1,0,0,0,1 @ F,0,1,1,0,9.7086396,0,1 @ F,0,1,1,0,9.7086396,0,1 @ F,0,0,1,0,0,0,1 @ F,0,0,1,0,0,0,1 @ F,0,0,1,0,3.2750268,0,1 @ F,0,0,1,0,3.2750268,0,1 @ F,0,0,1,0,0,0,1 @ F,0,0,1,0,0,0,1"
     radius="0"
     unit="px"
     method="auto"
     mode="F"
     chamfer_steps="1"
     flexible="false"
     use_knot_distance="true"
     apply_no_radius="true"
     apply_with_radius="true"
     only_selected="false"
     hide_knots="false" /><radialGradient
     id="SVGID_1_-3-2"
     cx="-159.43106"
     cy="15.462561"
     r="64.706802"
     gradientTransform="matrix(-0.89413329,0,0,0.96304834,-80.753654,49.330428)"
     gradientUnits="userSpaceOnUse"
     fx="-159.43106"
     fy="15.462561">
	<stop
   offset="0"
   style="stop-color:#006fff;stop-opacity:1;"
   id="stop1-6-9" />
	<stop
   offset="1"
   style="stop-color:#15baff;stop-opacity:1;"
   id="stop2-7-1" />
</radialGradient><inkscape:path-effect
     effect="fillet_chamfer"
     id="path-effect2"
     is_visible="true"
     lpeversion="1"
     nodesatellites_param="F,0,1,1,0,4.1855502,0,1 @ F,0,1,1,0,4.1855502,0,1 @ F,0,0,1,0,13.761382,0,1 @ F,0,0,1,0,14.755441,0,1"
     radius="0"
     unit="px"
     method="auto"
     mode="F"
     chamfer_steps="1"
     flexible="false"
     use_knot_distance="true"
     apply_no_radius="true"
     apply_with_radius="true"
     only_selected="false"
     hide_knots="false" /><inkscape:path-effect
     effect="fillet_chamfer"
     id="path-effect20-5"
     is_visible="true"
     lpeversion="1"
     nodesatellites_param="F,0,0,1,0,1.4582365,0,1 @ F,0,0,1,0,4.7943319,0,1 @ F,0,0,1,0,0,0,1 @ F,0,0,1,0,0,0,1 @ F,0,0,1,0,0,0,1 @ F,0,0,1,0,0,0,1 @ F,0,0,1,0,0,0,1 @ F,0,0,1,0,0,0,1 @ F,0,0,1,0,2.051402,0,1"
     radius="0"
     unit="px"
     method="auto"
     mode="F"
     chamfer_steps="1"
     flexible="false"
     use_knot_distance="true"
     apply_no_radius="true"
     apply_with_radius="true"
     only_selected="false"
     hide_knots="false" /><radialGradient
     id="radialGradient16"
     cx="-159.43106"
     cy="15.462561"
     r="64.706802"
     gradientTransform="matrix(-0.89413329,0,0,0.96304834,-80.753654,49.330428)"
     gradientUnits="userSpaceOnUse"
     fx="-159.43106"
     fy="15.462561">
	<stop
   offset="0"
   style="stop-color:#3d6aa4;stop-opacity:1;"
   id="stop15" />
	<stop
   offset="1"
   style="stop-color:#0097d2;stop-opacity:1;"
   id="stop16" />
</radialGradient><inkscape:path-effect
     effect="fillet_chamfer"
     id="path-effect20"
     is_visible="true"
     lpeversion="1"
     nodesatellites_param="F,0,0,1,0,1.4582365,0,1 @ F,0,0,1,0,4.7943319,0,1 @ F,0,0,1,0,0,0,1 @ F,0,0,1,0,0,0,1 @ F,0,0,1,0,0,0,1 @ F,0,0,1,0,0,0,1 @ F,0,0,1,0,0,0,1 @ F,0,0,1,0,0,0,1 @ F,0,0,1,0,2.051402,0,1"
     radius="0"
     unit="px"
     method="auto"
     mode="F"
     chamfer_steps="1"
     flexible="false"
     use_knot_distance="true"
     apply_no_radius="true"
     apply_with_radius="true"
     only_selected="false"
     hide_knots="false" /><inkscape:path-effect
     effect="fillet_chamfer"
     id="path-effect21-7-3"
     is_visible="true"
     lpeversion="1"
     nodesatellites_param="F,0,0,1,0,0,0,1 @ F,0,1,1,0,9.7086396,0,1 @ F,0,1,1,0,9.7086396,0,1 @ F,0,0,1,0,0,0,1 @ F,0,0,1,0,0,0,1 @ F,0,0,1,0,3.2750268,0,1 @ F,0,0,1,0,3.2750268,0,1 @ F,0,0,1,0,0,0,1 @ F,0,0,1,0,0,0,1"
     radius="0"
     unit="px"
     method="auto"
     mode="F"
     chamfer_steps="1"
     flexible="false"
     use_knot_distance="true"
     apply_no_radius="true"
     apply_with_radius="true"
     only_selected="false"
     hide_knots="false" /><radialGradient
     inkscape:collect="always"
     xlink:href="#SVGID_1_-3-2-7"
     id="radialGradient14-6"
     cx="51.925644"
     cy="78.491135"
     fx="51.925644"
     fy="78.491135"
     r="27.708172"
     gradientTransform="matrix(0,-2.1910082,2.2418851,0,-92.280969,184.46437)"
     gradientUnits="userSpaceOnUse" /><radialGradient
     id="SVGID_1_-3-2-7"
     cx="-159.43106"
     cy="15.462561"
     r="64.706802"
     gradientTransform="matrix(-0.89413329,0,0,0.96304834,-80.753654,49.330428)"
     gradientUnits="userSpaceOnUse"
     fx="-159.43106"
     fy="15.462561">
	<stop
   offset="0.14903075"
   style="stop-color:#006fff;stop-opacity:1;"
   id="stop1-6-9-5" />
	<stop
   offset="1"
   style="stop-color:#50e999;stop-opacity:1;"
   id="stop2-7-1-3" />
</radialGradient><inkscape:path-effect
     effect="fillet_chamfer"
     id="path-effect2-5"
     is_visible="true"
     lpeversion="1"
     nodesatellites_param="F,0,0,1,0,1.7191201,0,1 @ F,0,0,1,0,13.761382,0,1 @ F,0,0,1,0,13.761382,0,1 @ F,0,0,1,0,14.755441,0,1"
     radius="0"
     unit="px"
     method="auto"
     mode="F"
     chamfer_steps="1"
     flexible="false"
     use_knot_distance="true"
     apply_no_radius="true"
     apply_with_radius="true"
     only_selected="false"
     hide_knots="false" /><inkscape:path-effect
     effect="fillet_chamfer"
     id="path-effect20-5-6"
     is_visible="true"
     lpeversion="1"
     nodesatellites_param="F,0,0,1,0,1.4582365,0,1 @ F,0,0,1,0,4.7943319,0,1 @ F,0,0,1,0,0,0,1 @ F,0,0,1,0,0,0,1 @ F,0,0,1,0,0,0,1 @ F,0,0,1,0,0,0,1 @ F,0,0,1,0,0,0,1 @ F,0,0,1,0,0,0,1 @ F,0,0,1,0,2.051402,0,1"
     radius="0"
     unit="px"
     method="auto"
     mode="F"
     chamfer_steps="1"
     flexible="false"
     use_knot_distance="true"
     apply_no_radius="true"
     apply_with_radius="true"
     only_selected="false"
     hide_knots="false" /><radialGradient
     inkscape:collect="always"
     xlink:href="#radialGradient16-9"
     id="radialGradient15-2"
     cx="10.757424"
     cy="61.399044"
     fx="10.757424"
     fy="61.399044"
     r="24.565832"
     gradientTransform="matrix(0,-2.330989,2.5178893,0,-79.137526,79.401559)"
     gradientUnits="userSpaceOnUse" /><radialGradient
     id="radialGradient16-9"
     cx="-159.43106"
     cy="15.462561"
     r="64.706802"
     gradientTransform="matrix(-0.89413329,0,0,0.96304834,-80.753654,49.330428)"
     gradientUnits="userSpaceOnUse"
     fx="-159.43106"
     fy="15.462561">
	<stop
   offset="0.59945983"
   style="stop-color:#1e544f;stop-opacity:1;"
   id="stop15-1" />
	<stop
   offset="1"
   style="stop-color:#379990;stop-opacity:1;"
   id="stop16-2" />
</radialGradient><inkscape:path-effect
     effect="fillet_chamfer"
     id="path-effect20-7"
     is_visible="true"
     lpeversion="1"
     nodesatellites_param="F,0,0,1,0,1.4582365,0,1 @ F,0,0,1,0,4.7943319,0,1 @ F,0,0,1,0,0,0,1 @ F,0,0,1,0,0,0,1 @ F,0,0,1,0,0,0,1 @ F,0,0,1,0,0,0,1 @ F,0,0,1,0,0,0,1 @ F,0,0,1,0,0,0,1 @ F,0,0,1,0,2.051402,0,1"
     radius="0"
     unit="px"
     method="auto"
     mode="F"
     chamfer_steps="1"
     flexible="false"
     use_knot_distance="true"
     apply_no_radius="true"
     apply_with_radius="true"
     only_selected="false"
     hide_knots="false" /><radialGradient
     id="SVGID_1_-3-2-7-6"
     cx="-159.43106"
     cy="15.462561"
     r="64.706802"
     gradientTransform="matrix(-0.89413329,0,0,0.96304834,-80.753654,49.330428)"
     gradientUnits="userSpaceOnUse"
     fx="-159.43106"
     fy="15.462561">
	<stop
   offset="0"
   style="stop-color:#006fff;stop-opacity:1;"
   id="stop1-6-9-5-2" />
	<stop
   offset="1"
   style="stop-color:#15baff;stop-opacity:1;"
   id="stop2-7-1-3-6" />
</radialGradient><inkscape:path-effect
     effect="fillet_chamfer"
     id="path-effect2-5-1"
     is_visible="true"
     lpeversion="1"
     nodesatellites_param="F,0,0,1,0,1.7191201,0,1 @ F,0,0,1,0,13.761382,0,1 @ F,0,0,1,0,13.761382,0,1 @ F,0,0,1,0,14.755441,0,1"
     radius="0"
     unit="px"
     method="auto"
     mode="F"
     chamfer_steps="1"
     flexible="false"
     use_knot_distance="true"
     apply_no_radius="true"
     apply_with_radius="true"
     only_selected="false"
     hide_knots="false" /><radialGradient
     id="radialGradient16-9-7"
     cx="-159.43106"
     cy="15.462561"
     r="64.706802"
     gradientTransform="matrix(-0.89413329,0,0,0.96304834,-80.753654,49.330428)"
     gradientUnits="userSpaceOnUse"
     fx="-159.43106"
     fy="15.462561">
	<stop
   offset="0"
   style="stop-color:#3d6aa4;stop-opacity:1;"
   id="stop15-1-9" />
	<stop
   offset="1"
   style="stop-color:#0097d2;stop-opacity:1;"
   id="stop16-2-2" />
</radialGradient><inkscape:path-effect
     effect="fillet_chamfer"
     id="path-effect20-7-0"
     is_visible="true"
     lpeversion="1"
     nodesatellites_param="F,0,0,1,0,1.4582365,0,1 @ F,0,0,1,0,4.7943319,0,1 @ F,0,0,1,0,0,0,1 @ F,0,0,1,0,0,0,1 @ F,0,0,1,0,0,0,1 @ F,0,0,1,0,0,0,1 @ F,0,0,1,0,0,0,1 @ F,0,0,1,0,0,0,1 @ F,0,0,1,0,2.051402,0,1"
     radius="0"
     unit="px"
     method="auto"
     mode="F"
     chamfer_steps="1"
     flexible="false"
     use_knot_distance="true"
     apply_no_radius="true"
     apply_with_radius="true"
     only_selected="false"
     hide_knots="false" /><filter
     inkscape:collect="always"
     style="color-interpolation-filters:sRGB"
     id="filter5"
     x="-0.22332014"
     y="-0.96695497"
     width="1.4522567"
     height="2.9427187"><feGaussianBlur
       inkscape:collect="always"
       stdDeviation="2.0448052"
       id="feGaussianBlur5" /></filter><inkscape:path-effect
     effect="fillet_chamfer"
     id="path-effect1"
     is_visible="true"
     lpeversion="1"
     nodesatellites_param="F,0,0,1,0,0.31624605,0,1 @ F,0,0,1,0,0.31624605,0,1 @ F,0,0,1,0,0.63301856,0,1 @ F,0,0,1,0,0.63301856,0,1 @ F,0,0,1,0,0,0,1 @ F,0,0,1,0,0.67945981,0,1 @ F,0,0,1,0,0.67945981,0,1 | F,0,0,1,0,0.65808453,0,1 @ F,0,0,1,0,0.65808453,0,1 @ F,0,0,1,0,0.6592544,0,1 @ F,0,0,1,0,0.6592544,0,1 | F,0,0,1,0,0.67712758,0,1 @ F,0,0,1,0,0.67712758,0,1 @ F,0,0,1,0,0,0,1 @ F,0,0,1,0,0.67712758,0,1 @ F,0,0,1,0,0.67712758,0,1 @ F,0,0,1,0,0.33050177,0,1 @ F,0,1,1,0,0.33050177,0,1"
     radius="0"
     unit="px"
     method="auto"
     mode="F"
     chamfer_steps="1"
     flexible="false"
     use_knot_distance="true"
     apply_no_radius="true"
     apply_with_radius="true"
     only_selected="false"
     hide_knots="false" /><inkscape:path-effect
     effect="fillet_chamfer"
     id="path-effect1-9"
     is_visible="true"
     lpeversion="1"
     nodesatellites_param="F,0,0,1,0,0.39320954,0,1 @ F,0,0,1,0,0.39320954,0,1 @ F,0,0,1,0,0.39320954,0,1 @ F,0,0,1,0,0.30174711,0,1 @ F,0,0,1,0,0.39320954,0,1 | F,0,0,1,0,1.0538914,0,1 @ F,0,0,1,0,0,0,1 @ F,0,0,1,0,2.2660946,0,1 @ F,0,0,1,0,0.93879918,0,1 @ F,0,0,1,0,11.547306,0,1 @ F,0,0,1,0,0,0,1 @ F,0,0,1,0,0,0,1 @ F,0,0,1,0,0.80071151,0,1 @ F,0,0,1,0,2.4325445,0,1 @ F,0,0,1,0,1.0538914,0,1 | F,0,0,1,0,0.69853441,0,1 @ F,0,0,1,0,0.48105434,0,1 @ F,0,0,1,0,1.9196119,0,1 @ F,0,0,1,0,0.29451349,0,1 @ F,0,0,1,0,0.69853441,0,1"
     radius="0"
     unit="px"
     method="auto"
     mode="F"
     chamfer_steps="1"
     flexible="false"
     use_knot_distance="true"
     apply_no_radius="true"
     apply_with_radius="true"
     only_selected="false"
     hide_knots="false" /></defs><sodipodi:namedview
   id="namedview12"
   pagecolor="#505050"
   bordercolor="#eeeeee"
   borderopacity="1"
   inkscape:showpageshadow="0"
   inkscape:pageopacity="0"
   inkscape:pagecheckerboard="0"
   inkscape:deskcolor="#505050"
   inkscape:zoom="4.765598"
   inkscape:cx="6.190199"
   inkscape:cy="18.255841"
   inkscape:window-width="1366"
   inkscape:window-height="699"
   inkscape:window-x="0"
   inkscape:window-y="0"
   inkscape:window-maximized="1"
   inkscape:current-layer="Layer_1" />
<style
   type="text/css"
   id="style1">
	.st0{opacity:0.15;fill:url(#SVGID_1_);}
	.st1{fill:url(#SVGID_2_);}
	.st2{opacity:0.34;fill:url(#SVGID_3_);}
	.st3{fill:url(#SVGID_4_);}
	.st4{opacity:0.12;fill:url(#SVGID_5_);}
	.st5{fill:url(#SVGID_6_);}
</style>
<radialGradient
   id="SVGID_1_"
   cx="28.1281"
   cy="24.4864"
   r="40.0504"
   fx="5.4853"
   fy="6.8876"
   gradientUnits="userSpaceOnUse">
	<stop
   offset="0"
   style="stop-color:#000000"
   id="stop1" />
	<stop
   offset="1"
   style="stop-color:#545454"
   id="stop2" />
</radialGradient>

<radialGradient
   id="SVGID_2_"
   cx="28.1281"
   cy="25.0733"
   r="40.0504"
   fx="5.4853"
   fy="7.4745"
   gradientUnits="userSpaceOnUse"
   gradientTransform="translate(-64.792901)">
	<stop
   offset="0"
   style="stop-color:#15C7FF"
   id="stop3" />
	<stop
   offset="1"
   style="stop-color:#005A9E"
   id="stop4" />
</radialGradient>

<linearGradient
   id="SVGID_3_"
   gradientUnits="userSpaceOnUse"
   x1="8"
   y1="26.7181"
   x2="56"
   y2="26.7181">
	<stop
   offset="0"
   style="stop-color:#000000"
   id="stop5" />
	<stop
   offset="1"
   style="stop-color:#404040"
   id="stop6" />
</linearGradient>

<radialGradient
   id="SVGID_4_"
   cx="25.2137"
   cy="25.5635"
   r="32.3483"
   fx="16.5687"
   fy="17.6447"
   gradientUnits="userSpaceOnUse"
   gradientTransform="translate(-64.792901)">
	<stop
   offset="0"
   style="stop-color:#FFFFFF"
   id="stop7" />
	<stop
   offset="1"
   style="stop-color:#B7B7B7"
   id="stop8" />
</radialGradient>

<radialGradient
   id="SVGID_5_"
   cx="32"
   cy="38.1714"
   r="40.0486"
   fx="14.0678"
   fy="24.0229"
   gradientUnits="userSpaceOnUse">
	<stop
   offset="0"
   style="stop-color:#000000"
   id="stop9" />
	<stop
   offset="1"
   style="stop-color:#545454"
   id="stop10" />
</radialGradient>

<radialGradient
   id="SVGID_6_"
   cx="32"
   cy="39"
   r="40.0486"
   fx="14.0678"
   fy="24.8514"
   gradientUnits="userSpaceOnUse"
   gradientTransform="translate(-64.792901)">
	<stop
   offset="0"
   style="stop-color:#00F0F4"
   id="stop11" />
	<stop
   offset="1"
   style="stop-color:#1598FF"
   id="stop12" />
</radialGradient>

<path
   class="st1"
   d="M 22.196242,11.795294 H 12.203491 A 4.7943319,4.7943319 135 0 0 7.409159,16.589626 V 40.29912 c 0,3.691468 2.98833,6.76769 6.679798,6.76769 h 35.772071 c 3.691466,0 6.679797,-2.98833 6.679797,-6.679797 v -18.28155 c 0,-3.691467 -2.988331,-6.679798 -6.679797,-6.679798 H 30.037826 a 5.6416074,5.6416074 19.982285 0 1 -3.623682,-1.317644 l -1.642012,-1.376082 a 4.0103294,4.0103294 19.982285 0 0 -2.57589,-0.936645 z"
   id="path4-0"
   style="fill:url(#radialGradient15-2);stroke-width:0.878921"
   sodipodi:nodetypes="ccsssssscc"
   inkscape:path-effect="#path-effect20-7"
   inkscape:original-d="M 23.654479,11.795294 H 7.409159 V 40.29912 c 0,3.691468 2.98833,6.76769 6.679798,6.76769 h 35.772071 c 3.691466,0 6.679797,-2.98833 6.679797,-6.679797 v -18.28155 c 0,-3.691467 -2.988331,-6.679798 -6.679797,-6.679798 H 27.986424 Z"
   transform="matrix(1.0965063,0,0,1.0965063,-3.060779,-4.5220224)" /><path
   id="rect1-9"
   style="opacity:0.870323;fill:#ffffff;stroke-width:0.2"
   d="m 11.603718,20.662382 28.646459,0 A 13.761382,13.761382 45 0 1 54.011559,34.423764 13.636557,13.636557 135.5269 0 1 40.250177,47.934343 H 24.640039 A 14.755441,14.755441 45 0 1 9.8845978,33.178902 v -10.7974 a 1.7191201,1.7191201 135 0 1 1.7191202,-1.71912 z"
   inkscape:path-effect="#path-effect2-5"
   inkscape:original-d="M 9.8845978,20.662382 H 54.011559 V 47.934343 H 9.8845978 Z"
   transform="matrix(1.0965063,0,0,1.0965063,-2.416994,-5.7391264)" /><path
   id="rect13-36"
   style="fill:url(#radialGradient14-6);fill-opacity:1;stroke:none;stroke-width:0.681659;stroke-linecap:round;stroke-linejoin:round"
   d="m 12.869929,20.661523 h 10.852407 a 7.0733661,7.0733661 0 0 0 5.326416,-2.419142 7.0447591,7.0447591 0 0 1 5.309311,-2.399567 h 16.77201 a 7.8520921,7.8520921 0 0 1 7.85209,7.852092 v 24.041409 a 7.8520921,7.8520921 0 0 1 -7.85209,7.852093 H 12.869929 A 7.8520921,7.8520921 0 0 1 5.017836,47.736315 V 28.513616 a 7.8520921,7.8520921 0 0 1 7.852093,-7.852093 z"
   sodipodi:nodetypes="ccccccc" /><path
   d="m 10.320313,8.4111326 c -2.90323,6.383e-4 -5.2563,2.3545834 -5.25586,5.2578124 v 14.101562 c 0.224089,-2.374268 1.494712,-4.443315 3.357422,-5.726562 v -3.242188 c 1.44e-4,-1.040868 0.843898,-1.884622 1.884766,-1.884765 h 20.314453 c 1.111326,-0.692982 2.401403,-1.077108 3.738281,-1.074219 H 51.13086 c 4.056334,2.73e-4 7.392473,3.076738 7.80664,7.023437 v -3.15039 c 0,-4.047717 -3.276503,-7.324219 -7.324219,-7.324219 H 29.876953 c -1.453526,1.44e-4 -2.860685,-0.51155 -3.974609,-1.445312 L 24.103516,9.4384764 C 23.311459,8.77455 22.310858,8.4108208 21.277344,8.4111326 Z m 0.02734,2.7617184 h 10.521484 c 1.066492,0 1.925781,0.85929 1.925781,1.925782 0,1.06649 -0.859289,1.925781 -1.925781,1.925781 H 10.347653 c -1.066493,0 -1.925782,-0.859291 -1.925782,-1.925781 0,-1.066492 0.859289,-1.925781 1.925782,-1.925782 z"
   style="baseline-shift:baseline;display:inline;overflow:visible;fill:none;stroke:#000000;stroke-width:0.1;stroke-dasharray:none;stroke-opacity:1;filter:url(#filter5);enable-background:accumulate;stop-color:#000000"
   id="path5" /><path
   d="m 10.306641,16.916992 c -1.040868,1.43e-4 -1.884622,0.843897 -1.884766,1.884765 v 3.242188 c 1.26506,-0.871517 2.796825,-1.383112 4.449219,-1.382813 h 10.851563 c 2.04141,-2.67e-4 3.983163,-0.882493 5.326171,-2.419922 0.459363,-0.523529 0.993287,-0.963189 1.572266,-1.324218 z"
   style="baseline-shift:baseline;display:inline;overflow:visible;fill:none;stroke:#000000;stroke-width:0.1;stroke-dasharray:none;stroke-opacity:1;filter:url(#filter5);enable-background:accumulate;stop-color:#000000"
   id="path4" /><path
   d="m 34.359375,15.842773 c -2.033365,-0.0044 -3.969457,0.870017 -5.310547,2.398437 -1.343008,1.537429 -3.284761,2.419655 -5.326171,2.419922 H 12.871094 c -4.33694,-7.86e-4 -7.853223,3.514623 -7.853516,7.851563 v 19.222656 c -7.86e-4,4.337703 3.515813,7.854302 7.853516,7.853516 H 51.13086 c 4.336939,-2.93e-4 7.852348,-3.516576 7.851562,-7.853516 V 23.694335 c -2.92e-4,-4.336177 -3.515385,-7.85127 -7.851562,-7.851562 z"
   style="baseline-shift:baseline;display:inline;overflow:visible;fill:none;stroke:#000000;stroke-width:0.1;stroke-linecap:round;stroke-linejoin:round;stroke-dasharray:none;stroke-opacity:1;filter:url(#filter5);enable-background:accumulate;stop-color:#000000"
   id="path3" /><g
   id="g1423"
   transform="matrix(0.03728481,0,0,0.03375977,37.081582,35.769)"
   style="opacity:0.3;stroke-width:0.997402"><g
     id="g1341"
     style="stroke-width:0.997402"><g
       id="g1339"
       style="stroke-width:0.997402"><path
         d="M 484.808,332.823 C 470.277,278.904 402.479,210.857 312.09,159.458 203.39,97.649 68.221,65.703 31.825,128.227 c -8.219,14.123 -9.826,31.736 -4.649,50.95 14.531,53.913 82.329,121.966 172.723,173.359 67.27,38.252 144.756,65.061 202.66,65.061 35.505,0 63.654,-10.075 77.572,-33.768 0.011,-0.017 0.023,-0.04 0.034,-0.057 8.22,-14.122 9.826,-31.735 4.643,-50.949 z m -34.063,33.785 C 432.064,398.27 331.396,388.138 216.729,322.94 122.469,269.339 70.122,207.666 60.058,170.316 c -2.798,-10.388 -2.395,-18.783 1.198,-24.953 6.494,-11.154 23.579,-16.898 47.868,-16.898 44.718,0 113.849,19.492 186.131,60.6 94.26,53.595 146.607,115.268 156.671,152.618 2.793,10.377 2.401,18.755 -1.181,24.925 z"
         id="path1337"
         style="stroke-width:0.997402" /></g></g><g
     id="g1347"
     style="stroke-width:0.997402"><g
       id="g1345"
       style="stroke-width:0.997402"><path
         d="m 255.998,0 c -73.003,0 -112.39,131.888 -112.39,255.994 0,124.106 39.387,256.006 112.39,256.006 64.074,0 112.39,-110.052 112.39,-256 0,-145.943 -48.316,-256 -112.39,-256 z m 0,477.948 c -36.975,0 -78.333,-94.919 -78.333,-221.948 0,-127.029 41.357,-221.942 78.333,-221.942 36.976,0 78.332,94.913 78.332,221.942 0,127.029 -41.357,221.948 -78.332,221.948 z"
         id="path1343"
         style="stroke-width:0.997402" /></g></g><g
     id="g1353"
     style="stroke-width:0.997402"><g
       id="g1351"
       style="stroke-width:0.997402"><path
         d="m 480.177,128.221 c -0.011,-0.017 -0.023,-0.04 -0.034,-0.057 C 443.514,65.81 308.419,97.751 199.905,159.452 109.505,210.856 41.713,278.904 27.182,332.817 c -5.177,19.214 -3.57,36.833 4.649,50.95 13.85,23.789 41.987,33.899 77.527,33.899 57.881,0 135.396,-26.832 202.74,-65.135 90.395,-51.393 158.192,-119.44 172.723,-173.359 5.181,-19.22 3.575,-36.834 -4.644,-50.951 z m -28.246,42.096 c -10.07,37.35 -62.422,99.028 -156.671,152.624 -111.556,63.432 -215.557,75.381 -234.004,43.69 -3.593,-6.17 -3.996,-14.565 -1.198,-24.947 10.07,-37.35 62.416,-99.023 156.677,-152.618 73.57,-41.84 141.379,-61.003 185.467,-61.003 24.629,0 41.857,5.983 48.549,17.335 3.582,6.164 3.973,14.548 1.18,24.919 z"
         id="path1349"
         style="stroke-width:0.997402" /></g></g><g
     id="g1359"
     style="stroke-width:0.997402"><g
       id="g1357"
       style="stroke-width:0.997402"><path
         d="m 255.998,204.914 c -28.166,0 -51.086,22.921 -51.086,51.086 0,28.171 22.921,51.086 51.086,51.086 28.166,0 51.081,-22.915 51.086,-51.086 0,-28.171 -22.921,-51.086 -51.086,-51.086 z m 0,68.115 c -9.389,0 -17.029,-7.64 -17.029,-17.029 0,-9.389 7.64,-17.029 17.029,-17.029 9.389,0 17.023,7.64 17.029,17.029 0,9.389 -7.641,17.029 -17.029,17.029 z"
         id="path1355"
         style="stroke-width:0.997402" /></g></g><g
     id="g1361"
     style="stroke-width:0.997402" /><g
     id="g1363"
     style="stroke-width:0.997402" /><g
     id="g1365"
     style="stroke-width:0.997402" /><g
     id="g1367"
     style="stroke-width:0.997402" /><g
     id="g1369"
     style="stroke-width:0.997402" /><g
     id="g1371"
     style="stroke-width:0.997402" /><g
     id="g1373"
     style="stroke-width:0.997402" /><g
     id="g1375"
     style="stroke-width:0.997402" /><g
     id="g1377"
     style="stroke-width:0.997402" /><g
     id="g1379"
     style="stroke-width:0.997402" /><g
     id="g1381"
     style="stroke-width:0.997402" /><g
     id="g1383"
     style="stroke-width:0.997402" /><g
     id="g1385"
     style="stroke-width:0.997402" /><g
     id="g1387"
     style="stroke-width:0.997402" /><g
     id="g1389"
     style="stroke-width:0.997402" /></g></svg>
